<svg height="512" viewBox="0 0 128 128" width="512" xmlns="http://www.w3.org/2000/svg" xmlns:xlink="http://www.w3.org/1999/xlink"><linearGradient id="linear-gradient" gradientUnits="userSpaceOnUse" x1="19.25" x2="19.25" y1="6.71" y2="106.62"><stop offset="0" stop-color="#fdc830"/><stop offset="1" stop-color="#f37335"/></linearGradient><linearGradient id="linear-gradient-2" gradientTransform="matrix(-1 0 0 -1 217.49 108)" x1="108.75" x2="108.75" xlink:href="#linear-gradient" y1="6.71" y2="106.62"/><linearGradient id="linear-gradient-3" gradientUnits="userSpaceOnUse" x1="39.86" x2="39.86" y1="125.78" y2="97.82"><stop offset="0" stop-color="#808080"/><stop offset="1" stop-color="#333"/></linearGradient><linearGradient id="linear-gradient-4" x1="88.14" x2="88.14" xlink:href="#linear-gradient-3" y1="125.78" y2="97.82"/><linearGradient id="linear-gradient-5" x1="64" x2="64" xlink:href="#linear-gradient" y1="23.72" y2="164.5"/><linearGradient id="linear-gradient-6" gradientUnits="userSpaceOnUse" x1="43.75" x2="43.75" y1="32.34" y2="113.2"><stop offset="0" stop-color="#00c6ff"/><stop offset="1" stop-color="#0072ff"/></linearGradient><linearGradient id="linear-gradient-7" x1="36.16" x2="36.16" xlink:href="#linear-gradient-6" y1="44.58" y2="136.44"/><linearGradient id="linear-gradient-8" x1="41.2" x2="41.2" xlink:href="#linear-gradient-6" y1="44.58" y2="136.44"/><linearGradient id="linear-gradient-9" x1="47.8" x2="47.8" xlink:href="#linear-gradient-6" y1="44.58" y2="136.44"/><linearGradient id="linear-gradient-10" x1="84.25" x2="84.25" xlink:href="#linear-gradient-6" y1="32.34" y2="113.2"/><linearGradient id="linear-gradient-11" x1="77.06" x2="77.06" xlink:href="#linear-gradient-6" y1="44.58" y2="136.44"/><linearGradient id="linear-gradient-12" x1="83.95" x2="83.95" xlink:href="#linear-gradient-6" y1="44.58" y2="136.44"/><linearGradient id="linear-gradient-13" x1="94.26" x2="94.26" xlink:href="#linear-gradient-6" y1="44.58" y2="136.44"/><linearGradient id="linear-gradient-14" gradientUnits="userSpaceOnUse" x1="37" x2="37" y1="71.9" y2="103.1"><stop offset="0" stop-color="#f3f7ff"/><stop offset="1" stop-color="#cdd9ff"/></linearGradient><linearGradient id="linear-gradient-15" x1="91" x2="91" xlink:href="#linear-gradient-14" y1="71.9" y2="103.1"/><linearGradient id="linear-gradient-16" x1="64" x2="64" xlink:href="#linear-gradient" y1="47.02" y2="84"/><linearGradient id="linear-gradient-19" x1="64" x2="64" xlink:href="#linear-gradient" y1="7.18" y2="75.71"/><g id="Bus_2" data-name="Bus 2"><path d="m20 44h2.51a0 0 0 0 1 0 0v20a0 0 0 0 1 0 0h-2.51a4 4 0 0 1 -4-4v-12a4 4 0 0 1 4-4z" fill="url(#linear-gradient)"/><path d="m109.49 44h2.51a0 0 0 0 1 0 0v20a0 0 0 0 1 0 0h-2.51a4 4 0 0 1 -4-4v-12a4 4 0 0 1 4-4z" fill="url(#linear-gradient-2)" transform="matrix(-1 0 0 -1 217.49 108)"/><path d="m30.86 96h18a0 0 0 0 1 0 0v12a4 4 0 0 1 -4 4h-10a4 4 0 0 1 -4-4v-12a0 0 0 0 1 0 0z" fill="url(#linear-gradient-3)"/><path d="m79.14 96h18a0 0 0 0 1 0 0v12a4 4 0 0 1 -4 4h-10a4 4 0 0 1 -4-4v-12a0 0 0 0 1 0 0z" fill="url(#linear-gradient-4)"/><rect fill="url(#linear-gradient-5)" height="71" rx="10" width="82.99" x="22.51" y="25"/><rect fill="url(#linear-gradient-6)" height="32" rx="2" width="36.49" x="25.51" y="38"/><path d="m25.51 59.31 21.31-21.31h-10.31l-11 11z" fill="url(#linear-gradient-7)"/><path d="m53.71 38-28.2 28.2v1.8a1.94 1.94 0 0 0 .31 1.07l31.07-31.07z" fill="url(#linear-gradient-8)"/><path d="m42.49 70 19.51-19.51v-8.89l-28.4 28.4z" fill="url(#linear-gradient-9)"/><path d="m60 70.5h-32.49a2.5 2.5 0 0 1 -2.51-2.5v-28a2.5 2.5 0 0 1 2.5-2.5h32.5a2.5 2.5 0 0 1 2.5 2.5v28a2.5 2.5 0 0 1 -2.5 2.5zm-32.49-32a1.5 1.5 0 0 0 -1.51 1.5v28a1.5 1.5 0 0 0 1.5 1.5h32.5a1.5 1.5 0 0 0 1.5-1.5v-28a1.5 1.5 0 0 0 -1.5-1.5z" fill="#fff"/><rect fill="url(#linear-gradient-10)" height="32" rx="2" width="36.49" x="66" y="38"/><path d="m66 60.12 22.12-22.12h-8.89l-13.23 13.23z" fill="url(#linear-gradient-11)"/><path d="m100.49 38h-2.86l-31.21 31.21a2 2 0 0 0 1.58.79h1.74l31.73-31.73a1.92 1.92 0 0 0 -.98-.27z" fill="url(#linear-gradient-12)"/><path d="m95.95 70 6.54-6.55v-9.92l-16.47 16.47z" fill="url(#linear-gradient-13)"/><path d="m100.49 70.5h-32.49a2.5 2.5 0 0 1 -2.5-2.5v-28a2.5 2.5 0 0 1 2.5-2.5h32.49a2.5 2.5 0 0 1 2.51 2.5v28a2.5 2.5 0 0 1 -2.51 2.5zm-32.49-32a1.5 1.5 0 0 0 -1.5 1.5v28a1.5 1.5 0 0 0 1.5 1.5h32.49a1.5 1.5 0 0 0 1.51-1.5v-28a1.5 1.5 0 0 0 -1.5-1.5z" fill="#fff"/><circle cx="37" cy="83" fill="url(#linear-gradient-14)" r="6.5"/><path d="m37 90.5a7.5 7.5 0 1 1 7.5-7.5 7.5 7.5 0 0 1 -7.5 7.5zm0-13a5.5 5.5 0 1 0 5.5 5.5 5.51 5.51 0 0 0 -5.5-5.5z" fill="#fff"/><circle cx="91" cy="83" fill="url(#linear-gradient-15)" r="6.5"/><path d="m91 90.5a7.5 7.5 0 1 1 7.5-7.5 7.5 7.5 0 0 1 -7.5 7.5zm0-13a5.5 5.5 0 1 0 5.5 5.5 5.51 5.51 0 0 0 -5.5-5.5z" fill="#fff"/><path d="m78 85h-28a2 2 0 0 1 0-4h28a2 2 0 0 1 0 4z" fill="url(#linear-gradient-16)"/><path d="m78 78.86h-28a2 2 0 0 1 0-4h28a2 2 0 0 1 0 4z" fill="url(#linear-gradient-16)"/><path d="m78 91.14h-28a2 2 0 1 1 0-4h28a2 2 0 0 1 0 4z" fill="url(#linear-gradient-16)"/><path d="m52 16h24a4 4 0 0 1 4 4v5a0 0 0 0 1 0 0h-32a0 0 0 0 1 0 0v-5a4 4 0 0 1 4-4z" fill="url(#linear-gradient-19)"/><g fill="#fff"><path d="m33.85 31.5h-1.63a1 1 0 0 1 0-2h1.63a1 1 0 0 1 0 2z"/><path d="m47.32 31.5h-10.06a1 1 0 1 1 0-2h10.06a1 1 0 0 1 0 2z"/><path d="m28.86 48a1 1 0 0 1 -1-1v-1.59a1 1 0 0 1 2 0v1.59a1 1 0 0 1 -1 1z"/><path d="m28.86 61.5a1 1 0 0 1 -1-1v-10.06a1 1 0 0 1 2 0v10.06a1 1 0 0 1 -1 1z"/><path d="m69.49 48a1 1 0 0 1 -1-1v-1.59a1 1 0 0 1 2 0v1.59a1 1 0 0 1 -1 1z"/><path d="m69.49 61.5a1 1 0 0 1 -1-1v-10.06a1 1 0 0 1 2 0v10.06a1 1 0 0 1 -1 1z"/></g></g></svg>