<svg height="512" viewBox="0 0 128 128" width="512" xmlns="http://www.w3.org/2000/svg" xmlns:xlink="http://www.w3.org/1999/xlink"><linearGradient id="linear-gradient" gradientUnits="userSpaceOnUse" x1="64" x2="64" y1="40.89" y2="105.26"><stop offset="0" stop-color="#1488cc"/><stop offset="1" stop-color="#2b32b2"/></linearGradient><linearGradient id="linear-gradient-2" x1="64" x2="64" xlink:href="#linear-gradient" y1="13.62" y2="73.16"/><linearGradient id="linear-gradient-3" gradientUnits="userSpaceOnUse" x1="64" x2="64" y1="11.7" y2="120.78"><stop offset="0" stop-color="#00c6ff"/><stop offset="1" stop-color="#0072ff"/></linearGradient><linearGradient id="linear-gradient-4" x1="85.54" x2="171.64" xlink:href="#linear-gradient-3" y1="50.49" y2="74.53"/><linearGradient id="linear-gradient-5" x1="99.09" x2="169.8" xlink:href="#linear-gradient-3" y1="48.74" y2="68.48"/><linearGradient id="linear-gradient-6" x1="108.04" x2="165.8" xlink:href="#linear-gradient-3" y1="49.57" y2="65.7"/><linearGradient id="linear-gradient-7" x1="22.91" x2="22.91" xlink:href="#linear-gradient" y1="19.45" y2="53.12"/><linearGradient id="linear-gradient-8" x1="105.09" x2="105.09" xlink:href="#linear-gradient" y1="19.45" y2="53.12"/><linearGradient id="linear-gradient-9" gradientUnits="userSpaceOnUse" x1="31.74" x2="31.74" y1="60.9" y2="92.1"><stop offset="0" stop-color="#f3f7ff"/><stop offset="1" stop-color="#cdd9ff"/></linearGradient><linearGradient id="linear-gradient-10" x1="96.26" x2="96.26" xlink:href="#linear-gradient-9" y1="60.9" y2="92.1"/><linearGradient id="linear-gradient-11" x1="64" x2="64" xlink:href="#linear-gradient" y1="18.4" y2="47.76"/><linearGradient id="linear-gradient-14" gradientUnits="userSpaceOnUse" x1="34.6" x2="34.6" y1="129.08" y2="90.61"><stop offset="0" stop-color="#808080"/><stop offset="1" stop-color="#333"/></linearGradient><linearGradient id="linear-gradient-15" x1="93.4" x2="93.4" xlink:href="#linear-gradient-14" y1="129.08" y2="90.61"/><g id="Car_2" data-name="Car 2"><rect fill="url(#linear-gradient)" height="32" rx="8" width="96" x="16" y="56"/><path d="m37.37 24a4.22 4.22 0 0 0 -4.14 3l-7.63 29h76.8l-7.63-29a4.22 4.22 0 0 0 -4.14-3" fill="url(#linear-gradient-2)"/><path d="m30.47 53.6a1 1 0 0 1 -.94-1.22l6.47-24.48a2.18 2.18 0 0 1 2.15-1.5h51.72a2.18 2.18 0 0 1 2.13 1.5l6.45 24.48a1 1 0 0 1 -.94 1.22z" fill="url(#linear-gradient-3)"/><path d="m53.57 26.4-23.34 23.34-.7 2.64a1 1 0 0 0 .94 1.22h7.89l27.21-27.2z" fill="url(#linear-gradient-4)"/><path d="m52.15 53.6h4.06l27.2-27.2h-4.05z" fill="url(#linear-gradient-5)"/><path d="m76 53.6 18.04-18.03-1.32-5.02-23.05 23.05z" fill="url(#linear-gradient-6)"/><path d="m97.53 54.1h-67.06a1.47 1.47 0 0 1 -1.42-1.84l6.45-24.48a2.68 2.68 0 0 1 2.63-1.88h51.74a2.68 2.68 0 0 1 2.63 1.88l6.5 24.48a1.47 1.47 0 0 1 -1.42 1.84zm-59.4-27.2a1.69 1.69 0 0 0 -1.67 1.1l-6.46 24.51a.47.47 0 0 0 .08.41.45.45 0 0 0 .37.18h67.08a.45.45 0 0 0 .37-.18.47.47 0 0 0 .08-.41l-6.45-24.51a1.67 1.67 0 0 0 -1.66-1.13z" fill="#fff"/><path d="m29.81 40h-9.54a4.14 4.14 0 0 0 -4.27 4v4a4.14 4.14 0 0 0 4.27 4h6.38z" fill="url(#linear-gradient-7)"/><path d="m107.73 40h-9.54l3.16 12h6.38a4.14 4.14 0 0 0 4.27-4v-4a4.14 4.14 0 0 0 -4.27-4z" fill="url(#linear-gradient-8)"/><circle cx="31.74" cy="72" fill="url(#linear-gradient-9)" r="6.5"/><path d="m31.74 79.5a7.5 7.5 0 1 1 7.5-7.5 7.51 7.51 0 0 1 -7.5 7.5zm0-13a5.5 5.5 0 1 0 5.5 5.5 5.51 5.51 0 0 0 -5.5-5.5z" fill="#fff"/><circle cx="96.26" cy="72" fill="url(#linear-gradient-10)" r="6.5"/><path d="m96.26 79.5a7.5 7.5 0 1 1 7.5-7.5 7.5 7.5 0 0 1 -7.5 7.5zm0-13a5.5 5.5 0 1 0 5.5 5.5 5.5 5.5 0 0 0 -5.5-5.5z" fill="#fff"/><path d="m78 74h-28a2 2 0 0 1 0-4h28a2 2 0 0 1 0 4z" fill="url(#linear-gradient-11)"/><path d="m78 67.86h-28a2 2 0 0 1 0-4h28a2 2 0 0 1 0 4z" fill="url(#linear-gradient-11)"/><path d="m78 80.14h-28a2 2 0 1 1 0-4h28a2 2 0 0 1 0 4z" fill="url(#linear-gradient-11)"/><path d="m25.6 88h18a0 0 0 0 1 0 0v12a4 4 0 0 1 -4 4h-10a4 4 0 0 1 -4-4v-12a0 0 0 0 1 0 0z" fill="url(#linear-gradient-14)"/><path d="m84.4 88h18a0 0 0 0 1 0 0v12a4 4 0 0 1 -4 4h-10a4 4 0 0 1 -4-4v-12a0 0 0 0 1 0 0z" fill="url(#linear-gradient-15)"/><g fill="#fff"><path d="m38.16 32.9a1.17 1.17 0 0 1 -.26 0 1 1 0 0 1 -.71-1.22l.5-1.89a1 1 0 1 1 1.93.5l-.5 1.9a1 1 0 0 1 -.96.71z"/><path d="m33.39 51a1.15 1.15 0 0 1 -.26 0 1 1 0 0 1 -.71-1.22l3.72-14.12a1 1 0 1 1 1.93.51l-3.72 14.08a1 1 0 0 1 -.96.75z"/><path d="m21.22 45.06h-.95a1 1 0 1 1 0-2h.95a1 1 0 0 1 0 2z"/><path d="m104.88 45.06h-1a1 1 0 0 1 0-2h1a1 1 0 0 1 0 2z"/><path d="m36.17 61.62h-1.62a1 1 0 0 1 0-2h1.62a1 1 0 0 1 0 2z"/><path d="m49.64 61.62h-10.06a1 1 0 0 1 0-2h10.06a1 1 0 0 1 0 2z"/></g></g></svg>