<?xml version="1.0" encoding="iso-8859-1"?>
<!-- Generator: Adobe Illustrator 19.0.0, SVG Export Plug-In . SVG Version: 6.00 Build 0)  -->
<svg version="1.1" id="Capa_1" xmlns="http://www.w3.org/2000/svg" xmlns:xlink="http://www.w3.org/1999/xlink" x="0px" y="0px"
	 viewBox="0 0 496.485 496.485" style="enable-background:new 0 0 496.485 496.485;" xml:space="preserve">
<circle style="fill:#FDBE5E;" cx="248.242" cy="248.242" r="248.242"/>
<path style="fill:#4EBE9F;" d="M349.867,153.6v-1.552c0-55.855-45.77-101.624-101.624-101.624s-101.624,45.77-101.624,101.624v1.552
	H43.442v335.127h409.6V153.6H349.867z"/>
<g>
	<path style="fill:#193651;" d="M453.042,496.485h-409.6c-4.655,0-7.758-3.103-7.758-7.758V153.6c0-4.655,3.103-7.758,7.758-7.758
		h95.418c3.879-57.406,51.2-103.176,109.382-103.176s105.503,45.77,109.382,103.176h95.418c4.655,0,7.758,3.103,7.758,7.758v335.127
		C460.8,493.382,457.697,496.485,453.042,496.485z M51.2,480.97h394.085V161.358h-95.418c-4.655,0-7.758-3.103-7.758-7.758v-1.552
		c0-51.976-41.891-93.867-93.867-93.867s-93.867,41.891-93.867,93.867v1.552c0,4.655-3.103,7.758-7.758,7.758H51.2V480.97z"/>
	<path style="fill:#193651;" d="M467.006,496.485H29.479c-4.655,0-7.758-3.103-7.758-7.758s3.103-7.758,7.758-7.758h438.303
		c4.655,0,7.758,3.103,7.758,7.758C474.764,493.382,471.661,496.485,467.006,496.485z"/>
</g>
<g>
	<path style="fill:#FFFFFF;" d="M71.37,460.8V181.527h103.176v-29.479c0-40.339,32.582-73.697,73.697-73.697
		s73.697,32.582,73.697,73.697v29.479h103.176v278.497H71.37V460.8z"/>
	<rect x="180.752" y="378.57" style="fill:#FFFFFF;" width="135.758" height="110.158"/>
</g>
<g>
	<path style="fill:#193651;" d="M315.733,496.485H180.752c-4.655,0-7.758-3.103-7.758-7.758V378.57c0-4.655,3.103-7.758,7.758-7.758
		h135.758c4.655,0,7.758,3.103,7.758,7.758v110.158C323.491,493.382,320.388,496.485,315.733,496.485z M188.509,480.97h120.242
		v-94.642H188.509V480.97z"/>
	<path style="fill:#193651;" d="M248.242,496.485c-4.655,0-7.758-3.103-7.758-7.758V378.57c0-4.655,3.103-7.758,7.758-7.758
		S256,373.915,256,378.57v110.158C256,493.382,252.897,496.485,248.242,496.485z"/>
</g>
<polygon style="fill:#F16050;" points="280.824,125.673 257.552,125.673 257.552,101.624 238.933,101.624 238.933,125.673 
	215.661,125.673 215.661,144.291 238.933,144.291 238.933,167.564 257.552,167.564 257.552,144.291 280.824,144.291 "/>
<g>
	<rect x="96.97" y="210.23" style="fill:#2BA1DB;" width="42.667" height="44.994"/>
	<rect x="183.855" y="210.23" style="fill:#2BA1DB;" width="42.667" height="44.994"/>
	<rect x="269.964" y="210.23" style="fill:#2BA1DB;" width="42.667" height="44.994"/>
	<rect x="356.849" y="210.23" style="fill:#2BA1DB;" width="42.667" height="44.994"/>
	<rect x="96.97" y="290.133" style="fill:#2BA1DB;" width="42.667" height="44.994"/>
	<rect x="183.855" y="290.133" style="fill:#2BA1DB;" width="42.667" height="44.994"/>
	<rect x="269.964" y="290.133" style="fill:#2BA1DB;" width="42.667" height="44.994"/>
	<rect x="356.849" y="290.133" style="fill:#2BA1DB;" width="42.667" height="44.994"/>
</g>
<g>
	<rect x="93.091" y="387.103" style="fill:#193651;" width="15.515" height="13.964"/>
	<rect x="128" y="387.103" style="fill:#193651;" width="15.515" height="13.964"/>
	<rect x="93.091" y="422.788" style="fill:#193651;" width="15.515" height="13.964"/>
	<rect x="128" y="422.788" style="fill:#193651;" width="15.515" height="13.964"/>
	<rect x="352.97" y="387.103" style="fill:#193651;" width="15.515" height="13.964"/>
	<rect x="387.879" y="387.103" style="fill:#193651;" width="15.515" height="13.964"/>
	<rect x="352.97" y="422.788" style="fill:#193651;" width="15.515" height="13.964"/>
	<rect x="387.879" y="422.788" style="fill:#193651;" width="15.515" height="13.964"/>
</g>
<g>
</g>
<g>
</g>
<g>
</g>
<g>
</g>
<g>
</g>
<g>
</g>
<g>
</g>
<g>
</g>
<g>
</g>
<g>
</g>
<g>
</g>
<g>
</g>
<g>
</g>
<g>
</g>
<g>
</g>
</svg>
