<?xml version="1.0" encoding="utf-8"?>
<!-- Generator: Adobe Illustrator 23.0.1, SVG Export Plug-In . SVG Version: 6.00 Build 0)  -->
<svg version="1.1" id="Layer_1" xmlns="http://www.w3.org/2000/svg" xmlns:xlink="http://www.w3.org/1999/xlink" x="0px" y="0px"
	 viewBox="0 0 180 180" style="enable-background:new 0 0 180 180;" xml:space="preserve" fill="#fff">
<path d="M90,135c12.4,0,22.5,10.1,22.5,22.5S102.4,180,90,180s-22.5-10.1-22.5-22.5S77.6,135,90,135z M90,67.5
	c12.4,0,22.5,10.1,22.5,22.5s-10.1,22.5-22.5,22.5S67.5,102.4,67.5,90S77.6,67.5,90,67.5z M90,0c12.4,0,22.5,10.1,22.5,22.5
	S102.4,45,90,45S67.5,34.9,67.5,22.5S77.6,0,90,0z"/>
</svg>
